<svg xmlns="http://www.w3.org/2000/svg" width="70.631" height="60.179" viewBox="0 0 70.631 60.179">
  <g id="Group_192" data-name="Group 192" transform="translate(-2098.963 -3628.226)">
    <g id="Group_191" data-name="Group 191">
      <path id="Path_223" data-name="Path 223" d="M2155.557,3686.368H2113a12.035,12.035,0,0,1-12-12v-32.1a12.035,12.035,0,0,1,12-12h42.557a12.035,12.035,0,0,1,12,12v32.1A12.035,12.035,0,0,1,2155.557,3686.368Z" fill="none" stroke="#000" stroke-linecap="round" stroke-width="4.074"/>
      <path id="Path_224" data-name="Path 224" d="M2155.557,3686.368H2113a12.035,12.035,0,0,1-12-12v-32.1a12.035,12.035,0,0,1,12-12h42.557a12.035,12.035,0,0,1,12,12v32.1A12.035,12.035,0,0,1,2155.557,3686.368Z" fill="none" stroke="#b1b1b1" stroke-linecap="round" stroke-width="4"/>
    </g>
    <path id="Path_225" data-name="Path 225" d="M2104.048,3634.312l20.738,17.879a14.541,14.541,0,0,0,18.987,0l20.75-17.881" fill="none" stroke="#b1b1b1" stroke-linecap="round" stroke-width="4"/>
  </g>
</svg>
